<svg xmlns="http://www.w3.org/2000/svg" viewBox="0 0 254.31 120.8"><defs><style>.cls-1{fill:#231f20}</style></defs><g id="Layer_2" data-name="Layer 2"><g id="Layer_1-2" data-name="Layer 1"><path class="cls-1" d="M112.44 9.24c1.07-2 3.55-6 .49-7.56-1.79-.88-4.22-1.43-6.07-.48a8.7 8.7 0 0 0-3.45 3.9L91.63 23.62c-1.89 2.64-3.71 6-7.61 6.38-2.58.29-4.46-.81-4.42-3.11s1.42-5.51 2.48-7.53c3.06-5.81 3.45-7.79 6.42-13.58C91.33.25 82-1 79.71 3c-1.66 2.86-4.83 8.23-5.56 10-1.33 3.28-11.19 19-6.9 25.2 5.51 7 20.12-4 12.63 8.73-6 10.27-9.81 16.12-15.09 25.63-1.13 2.06-2.56 4.09-3 6.46-.55 3.4 4.12 3.38 6.13 3.23 3.58-.26 5.26-1.9 6.71-5.17.75-1.69 1.81-3.8 2.57-5.47a368.06 368.06 0 0 1 23.42-42.84c4.38-6.9 8.23-12.87 11.82-19.57m-39.13-5C76-1.07 67.18.43 67.18.43c-3.21 0-4.63 3.85-5.29 5l-9.63 18.94c-1.82 3.1-7.77 16.51-9.78 19.49-.14-3 0-9.06.14-10.5.39-5.72.78-10 1.38-15.29.45-4.06 1.31-8.64.47-12.7-.52-2.53-1.36-2.72-5-3.1S33.09 7.39 31.84 10c-4.63 9.54-9.79 18.91-13.91 28.67-1.2 2.85-2.71 5.69-3.93 8.52-1.46 3.4-2.86 6.78-4.46 10.12-1.7 3.54-7 15-8.53 18.66-1.64 4-2 7.14 4.63 7 1 0 3.35.24 6.19-2.85 2.23-2.41 2.68-4.67 4-8 4.74-11.85 8-19.74 13.22-31.45.52-1.17 1.67-4.48 2.82-7.09-.06 3.67-.68 8.08-.91 11-.87 10.64-1.5 20.93-2.42 31.47-.12 1.41-.5 3.11.17 4.44s2.28 1.67 3.63 1.83c5.29.64 5.83-2 7.48-5.61 1.45-3.23 2.35-5.87 3.67-9.15 4.06-10.15 8.35-20.21 13.08-30.07C57.78 35 59 32.46 60.31 30c2.4-4.55 4.4-8.85 7-13.89 2-3.73 3.85-7.8 5.94-11.82M214.79 35.2v.37l-9.39 1.73c3.37-8.68 6.87-19.32 8.93-24.68-.15 4 .7 18.52.52 22.49m-42.17 9.22a.13.13 0 0 1-.06.1l-18 4C158.47 42 175.35 18.64 178 15.9c-1.41 7.22-3.76 20.68-5.28 28.45m81.53-11.57c-.58-6.08-9-3-14-2.1l-14.29 2.7c-.26-6.85-.14-5.48-.24-9.65-.14-6-.5-10.74-.84-16.09-.22-3.37-.69-8-6.77-7.14-7 1-8.19 4.49-10.06 8.72-4.83 11.08-4.7 11.08-10.21 23.38-.41.93-2.47 5.9-2.81 6.86l-1.21.33-8 1.78v-.3c.7-5.62 1.59-11.21 2.38-16.82.71-5.12 1.46-13.43 2.07-18.56.65-5.5-5.72-5.36-5.72-5.36-3.89-.23-5.4.92-7.84 4.09-4.23 5.5-9.32 11.42-13.83 17.46-8.15 10.92-14.18 19.19-21.6 30.13-2.15 3.18-5.46 8-8.3 11.79-1.91-3.82-3.55-8-5.15-11.8-2.29-5.46-4-8.86-5.12-12.5-1-3.2.19-3.64 2.57-5.44 6.82-5.16 14.5-8.71 21.47-13.67 4.93-3.52 10.88-7.39 15.7-11a16.75 16.75 0 0 0 4.34-3.75c1.94-2.66-3.49-5.37-3.49-5.37a10.63 10.63 0 0 0-6.93 1.19 42.69 42.69 0 0 0-6.94 4.73c-4.09 3.19-9.32 7-13.41 10.18a118.38 118.38 0 0 1-13.88 9.57l14-20.88c4.56-5.88-7.5-7.53-12.14-1.34-4.29 5.56-7.17 10.43-10.56 15.47C105.26 31.39 98.65 44 92 57.28c-2.52 5-5 10.33-7.29 15.55-1.12 2.52-4.35 8.37.13 8.92 9.5 1.19 11.06-3.31 13.2-8.72 3.54-8.93 4.69-10.59 6.94-16.15a115.87 115.87 0 0 1 6.24-13.07c0-.08.79-1.21.78-1.22.46.93 3.34 10.6 3.74 11.67 2 5.24 5.45 17.41 7.41 22.95 1.41 4.59 1.84 5.91 8 5.75 3.08-.08 4.41-1.24 6.43-5.11s10.85-20.21 10.85-20.21l8.87-1.53 2.78-.52a16.51 16.51 0 0 0 2.31-.44h.1l8.86-1.75c-.6 3-2.49 9.67-2.83 11.36 0 0-4.07 15.83 1.22 16.63a11.71 11.71 0 0 0 5-.06c6.17-.74 6.24-9 6.24-9l3.33-21.48 7.18-1.42-7.24 24.47c-1 3.47-1.8 7.91 4.39 7.9 5.06.26 5.39-2.93 5.39-2.93.13-.49 4.12-13.4 5.12-18 .65-3 3-10.6 4-13.69 2.65-.51 4.62-.88 5.56-1l6-1v7.36c.61 8.65 0 17.68 1.74 26.2.28 1.36.85 3.12 2.57 3.12a45.07 45.07 0 0 0 4.92-.38c6.35-.53 5.2-7 4.81-11.06-.43-4.52-.88-8.3-1.51-12.78a114.23 114.23 0 0 1-.9-14.32.17.17 0 0 1 0-.1l23.34-3.94c2.93-.49 5.13-.24 4.54-6.32M19.06 97.79H7v6.68h9.92v4.94H7v10.17H1.48V92.85h17.58zM46 116.09H35.1l-1.5 3.49h-5.87l11.94-27.22h1.83l11.9 27.22h-5.87zm-5.46-13.52l-3.57 9h7.13zM83.8 97.43l-3.7 2.87a6 6 0 0 0-5.1-3.08c-1.78 0-3.32.81-3.32 2.59 0 1.54 1.18 2.19 3.12 3.08l3 1.34c4.21 1.86 6.6 4 6.6 7.81 0 5-4 8-9.36 8a11.5 11.5 0 0 1-10.23-5.89l3.77-2.83c1.45 2 3.36 3.88 6.55 3.88 2.35 0 3.81-1.09 3.81-3s-1.29-2.35-3.4-3.32l-2.87-1.3c-3.81-1.74-6.48-3.93-6.48-7.69 0-4.62 3.84-7.58 8.86-7.58a9.65 9.65 0 0 1 8.75 5.12zM121.8 119.58h-5.46V108h-11.86v11.54H99V92.85h5.46v10.25h11.83V92.85h5.49zM143.12 119.58h-5.46V92.85h5.46zM185.89 106.21a14.22 14.22 0 1 1-14.59-13.84h.34A13.93 13.93 0 0 1 185.88 106a1.93 1.93 0 0 1 .01.21zm-22.8 0c0 5.19 3.61 8.79 8.59 8.79a8.79 8.79 0 1 0-8.59-9zM223 92.85v27.21h-1.82l-15.47-16.52v16h-5.47V92.36h1.79l15.51 16.44v-16z"/></g></g></svg>