<svg xmlns="http://www.w3.org/2000/svg" width="24" height="24" viewBox="0 0 24 24">
    <g fill="none" fill-rule="evenodd">
        <path fill="#D8D8D8" fill-opacity=".01" d="M0 0h24v24H0z"/>
        <path fill="#4A4A4A" d="M12.756 20.604c-1.305-2.036-5.788-9.23-5.788-12.018 0-3.172 2.596-5.753 5.788-5.753 3.191 0 5.788 2.581 5.788 5.753 0 2.788-4.483 9.982-5.788 12.018m0-18.609c-3.657 0-6.63 2.958-6.63 6.591 0 3.494 6.021 12.633 6.278 13.02a.423.423 0 0 0 .704 0c.256-.387 6.278-9.526 6.278-13.02 0-3.633-2.974-6.59-6.63-6.59"/>
        <path fill="#4A4A4A" d="M12.756 9.607c-.95 0-1.722-.788-1.722-1.756 0-.97.772-1.758 1.722-1.758s1.722.788 1.722 1.758c0 .968-.773 1.756-1.722 1.756m0-4.373c-1.415 0-2.565 1.174-2.565 2.617 0 1.442 1.15 2.615 2.565 2.615 1.414 0 2.564-1.173 2.564-2.615 0-1.443-1.15-2.617-2.564-2.617"/>
    </g>
</svg>
