<svg xmlns="http://www.w3.org/2000/svg" width="24" height="22" viewBox="0 0 24 22">
    <g fill="none" fill-rule="evenodd">
        <path d="M0-1h24v24H0z"/>
        <g fill="#4A4A4A" fill-rule="nonzero">
            <path d="M2.929 1v9h9.142V1H2.93zm-.11-1h9.361c.493 0 .891.399.891.891v9.218a.891.891 0 0 1-.89.891H2.82a.891.891 0 0 1-.891-.891V.891c0-.492.398-.891.89-.891z"/>
            <path d="M3.786 6.458a.5.5 0 1 1 0-1h7.428a.5.5 0 1 1 0 1H3.786zM6.571 9.208a.5.5 0 1 1 0-1H8.43a.5.5 0 0 1 0 1H6.57zM4.536 9.314c-.69 0-1.25-.554-1.25-1.24 0-.687.56-1.24 1.25-1.24.689 0 1.25.553 1.25 1.24 0 .686-.561 1.24-1.25 1.24zm0-1c.14 0 .25-.109.25-.24 0-.132-.11-.24-.25-.24s-.25.108-.25.24c0 .131.11.24.25.24zM10.45 9.314c-.689 0-1.25-.554-1.25-1.24 0-.687.561-1.24 1.25-1.24s1.25.553 1.25 1.24c0 .686-.561 1.24-1.25 1.24zm0-1c.14 0 .25-.109.25-.24 0-.132-.11-.24-.25-.24s-.25.108-.25.24c0 .131.11.24.25.24zM1.929 1.333a.5.5 0 0 1 0 1H1.89a.391.391 0 0 0-.391.391v1.86a.5.5 0 1 1-1 0v-1.86c0-.768.623-1.39 1.391-1.39h.038zM14 1.333a.5.5 0 1 1 0 1h-.038a.391.391 0 0 0-.39.391v1.86a.5.5 0 0 1-1 0v-1.86c0-.768.622-1.39 1.39-1.39H14z"/>
            <g>
                <path d="M19.941 21.235l-.441.828-.441-.828c-2.377-4.46-3.559-7.33-3.559-8.735a4 4 0 1 1 8 0c0 1.405-1.182 4.276-3.559 8.735zM22.5 12.5a3 3 0 1 0-6 0c0 1.094 1.003 3.604 3 7.429 1.997-3.825 3-6.335 3-7.429z"/>
                <path d="M19.5 14.5a2 2 0 1 1 0-4 2 2 0 0 1 0 4zm0-1a1 1 0 1 0 0-2 1 1 0 0 0 0 2z"/>
            </g>
            <path d="M5.508 12.09a.5.5 0 0 1 .984-.18c.123.676.269 1.31.437 1.902a.5.5 0 0 1-.962.274c-.177-.624-.33-1.29-.459-1.997zm1.154 3.95a.5.5 0 0 1 .916-.401c.272.62.58 1.175.92 1.665a.5.5 0 0 1-.82.572 10.807 10.807 0 0 1-1.016-1.835zm2.466 3.432a.5.5 0 0 1 .638-.77c.161.134.327.258.497.372.361.241.726.453 1.11.644a.5.5 0 0 1-.447.895c-.42-.21-.822-.442-1.22-.708a7.071 7.071 0 0 1-.578-.433zm3.749 1.907a.5.5 0 1 1 .285-.959 13.3 13.3 0 0 0 1.883.41.5.5 0 1 1-.144.99 14.297 14.297 0 0 1-2.024-.441zm4.085.614a.5.5 0 1 1 .027-1c.167.005.336.007.507.007a.5.5 0 1 1 0 1c-.18 0-.358-.002-.534-.007z"/>
        </g>
    </g>
</svg>
