<?xml version="1.0" encoding="iso-8859-1"?>
<!-- Generator: Adobe Illustrator 19.0.0, SVG Export Plug-In . SVG Version: 6.00 Build 0)  -->
<svg version="1.1" id="Capa_1" xmlns="http://www.w3.org/2000/svg" xmlns:xlink="http://www.w3.org/1999/xlink" x="0px" y="0px"
	 viewBox="0 0 463 463" style="enable-background:new 0 0 463 463;" xml:space="preserve">
<g>
	<path d="M455.5,191c4.142,0,7.5-3.357,7.5-7.5v-48c0-12.958-10.542-23.5-23.5-23.5h-416C10.542,112,0,122.542,0,135.5v48
		c0,4.143,3.358,7.5,7.5,7.5c22.332,0,40.5,18.168,40.5,40.5S29.832,272,7.5,272c-4.142,0-7.5,3.357-7.5,7.5v48
		C0,340.458,10.542,351,23.5,351h416c12.958,0,23.5-10.542,23.5-23.5v-48c0-4.143-3.358-7.5-7.5-7.5
		c-22.332,0-40.5-18.168-40.5-40.5S433.168,191,455.5,191z M400,231.5c0,28.061,20.93,51.324,48,54.995V327.5
		c0,4.687-3.813,8.5-8.5,8.5h-80.525c0.011-0.166,0.025-0.331,0.025-0.5v-16c0-4.143-3.358-7.5-7.5-7.5s-7.5,3.357-7.5,7.5v16
		c0,0.169,0.014,0.334,0.025,0.5H23.5c-4.687,0-8.5-3.813-8.5-8.5v-41.005c27.07-3.671,48-26.935,48-54.995s-20.93-51.324-48-54.995
		V135.5c0-4.687,3.813-8.5,8.5-8.5h320.526c-0.011,0.166-0.025,0.331-0.025,0.5v16c0,4.143,3.358,7.5,7.5,7.5s7.5-3.357,7.5-7.5v-16
		c0-0.169-0.014-0.334-0.025-0.5H439.5c4.687,0,8.5,3.813,8.5,8.5v41.005C420.931,180.176,400,203.44,400,231.5z"/>
	<path d="M351.5,216c-4.142,0-7.5,3.357-7.5,7.5v16c0,4.143,3.358,7.5,7.5,7.5s7.5-3.357,7.5-7.5v-16
		C359,219.358,355.643,216,351.5,216z"/>
	<path d="M351.5,168c-4.142,0-7.5,3.357-7.5,7.5v16c0,4.143,3.358,7.5,7.5,7.5s7.5-3.357,7.5-7.5v-16
		C359,171.358,355.643,168,351.5,168z"/>
	<path d="M351.5,264c-4.142,0-7.5,3.357-7.5,7.5v16c0,4.143,3.358,7.5,7.5,7.5s7.5-3.357,7.5-7.5v-16
		C359,267.358,355.643,264,351.5,264z"/>
	<path d="M295.5,160h-184c-8.547,0-15.5,6.953-15.5,15.5v112c0,8.547,6.953,15.5,15.5,15.5h184c8.547,0,15.5-6.953,15.5-15.5v-112
		C311,166.953,304.047,160,295.5,160z M296,287.5c0,0.275-0.224,0.5-0.5,0.5h-184c-0.276,0-0.5-0.225-0.5-0.5v-112
		c0-0.275,0.224-0.5,0.5-0.5h184c0.276,0,0.5,0.225,0.5,0.5V287.5z"/>
	<path d="M263.5,208h-120c-4.142,0-7.5,3.357-7.5,7.5s3.358,7.5,7.5,7.5h120c4.142,0,7.5-3.357,7.5-7.5S267.642,208,263.5,208z"/>
	<path d="M167.5,240h-24c-4.142,0-7.5,3.357-7.5,7.5s3.358,7.5,7.5,7.5h24c4.142,0,7.5-3.357,7.5-7.5S171.642,240,167.5,240z"/>
	<path d="M263.5,240h-64c-4.142,0-7.5,3.357-7.5,7.5s3.358,7.5,7.5,7.5h64c4.142,0,7.5-3.357,7.5-7.5S267.642,240,263.5,240z"/>
</g>
<g>
</g>
<g>
</g>
<g>
</g>
<g>
</g>
<g>
</g>
<g>
</g>
<g>
</g>
<g>
</g>
<g>
</g>
<g>
</g>
<g>
</g>
<g>
</g>
<g>
</g>
<g>
</g>
<g>
</g>
</svg>
