<svg xmlns="http://www.w3.org/2000/svg" width="15" height="15" viewBox="0 0 15 15">
    <path fill="#7E7E8C" fill-rule="evenodd" d="M14.058 14.058a.65.65 0 0 1-.926 0L8.941 9.866l.925-.925 4.192 4.191a.65.65 0 0 1 .192.463.65.65 0 0 1-.192.463M2.138 8.842A4.709 4.709 0 0 1 .75 5.49c0-1.266.493-2.456 1.389-3.351A4.709 4.709 0 0 1 5.49.75c1.267 0 2.457.493 3.352 1.389a4.745 4.745 0 0 1 0 6.703 4.709 4.709 0 0 1-3.352 1.389A4.709 4.709 0 0 1 2.14 8.842m12.45 3.76l-4.352-4.351A5.492 5.492 0 0 0 5.49 0a5.49 5.49 0 1 0 2.76 10.237l4.352 4.352a1.401 1.401 0 0 0 1.987 0 1.405 1.405 0 0 0 0-1.987"/>
</svg>
