<svg xmlns="http://www.w3.org/2000/svg" width="24" height="24" viewBox="0 0 24 24">
  <g fill="none" fill-rule="evenodd">
    <rect width="24" height="24"/>
    <path fill="#000" d="M20.1816,11.9082 C20.1816,12.8552 20.9956,13.6242 21.9996,13.6242 L21.9996,16.9782 C21.9996,17.5312 21.5526,17.9782 20.9996,17.9782 L9.4026,17.9782 L10.1836,16.9782 L20.9996,16.9782 L20.9996,14.4482 C19.9426,14.0602 19.1816,13.0772 19.1816,11.9082 C19.1816,10.7382 19.9426,9.7552 20.9996,9.3672 L20.9996,6.9782 L17.9966,6.9782 L18.7786,5.9782 L20.9996,5.9782 C21.5526,5.9782 21.9996,6.4262 21.9996,6.9782 L21.9996,10.1912 C20.9956,10.1912 20.1816,10.9602 20.1816,11.9082 L20.1816,11.9082 Z M2.9996,16.9782 L2.9996,14.4482 C4.0576,14.0602 4.8186,13.0772 4.8186,11.9082 C4.8186,10.7382 4.0576,9.7552 2.9996,9.3672 L2.9996,6.9782 L14.1926,6.9782 L6.3796,16.9782 L2.9996,16.9782 Z M18.6336,2.1062 C18.4156,1.9362 18.1026,1.9742 17.9326,2.1922 L14.9736,5.9782 L2.9996,5.9782 C2.4476,5.9782 1.9996,6.4262 1.9996,6.9782 L1.9996,10.1912 C3.0036,10.1912 3.8186,10.9602 3.8186,11.9082 C3.8186,12.8552 3.0036,13.6242 1.9996,13.6242 L1.9996,16.9782 C1.9996,17.5312 2.4476,17.9782 2.9996,17.9782 L5.5986,17.9782 L2.6776,21.7172 C2.5076,21.9342 2.5466,22.2492 2.7636,22.4192 C2.9816,22.5892 3.2956,22.5502 3.4656,22.3322 L18.7206,2.8072 C18.8906,2.5902 18.8516,2.2762 18.6336,2.1062 L18.6336,2.1062 Z"/>
  </g>
</svg>
