<svg xmlns="http://www.w3.org/2000/svg" xmlns:xlink="http://www.w3.org/1999/xlink" width="23" height="24" viewBox="0 0 23 24">
    <defs>
        <path id="a" d="M0 .506h24v24H0z"/>
    </defs>
    <g fill="none" fill-rule="evenodd">
        <mask id="b" fill="#fff">
            <use xlink:href="#a"/>
        </mask>
        <path fill="#4A4A4A" d="M5.969 12.981h1.989v2.009H5.969v-2.009zm-.5 3.009h2.989a.5.5 0 0 0 .5-.5v-3.009a.5.5 0 0 0-.5-.5H5.469a.5.5 0 0 0-.5.5v3.009c0 .277.223.5.5.5zM5.969 6.981h1.989V8.99H5.969V6.981zm-.5 3.009h2.989a.5.5 0 0 0 .5-.5V6.481a.5.5 0 0 0-.5-.5H5.469a.5.5 0 0 0-.5.5V9.49a.5.5 0 0 0 .5.5z" mask="url(#b)"/>
        <path fill="#4A4A4A" d="M21.017 23h-3.044v-2.483a.5.5 0 0 0-1 0V23h-2.956V9.514l7 1.458V23zM5.97 19.044h1.99v3.938h-1.99v-3.938zM1 3.381l12.017-1.796V23H8.958v-4.456a.5.5 0 0 0-.5-.5H5.47c-.277 0-.5.223-.5.5V23H1V3.381zm20.62 6.695l-7.603-1.583V1.005a.5.5 0 0 0-.574-.494L.426 2.456A.5.5 0 0 0 0 2.951V23.5a.5.5 0 0 0 .5.5h21.017a.5.5 0 0 0 .5-.5V10.565a.5.5 0 0 0-.398-.489z" mask="url(#b)"/>
        <path fill="#4A4A4A" d="M17.473 17.969a.5.5 0 0 0 .5-.5v-1.081a.5.5 0 0 0-1 0v1.08a.5.5 0 0 0 .5.5M17.473 14.968a.5.5 0 0 0 .5-.5v-1.08a.5.5 0 1 0-1 0v1.08a.5.5 0 0 0 .5.5" mask="url(#b)"/>
    </g>
</svg>
