<?xml version="1.0" encoding="UTF-8"?>
<svg width="24px" height="24px" viewBox="0 0 24 24" version="1.1" xmlns="http://www.w3.org/2000/svg" xmlns:xlink="http://www.w3.org/1999/xlink">
    <!-- Generator: Sketch 51.1 (57501) - http://www.bohemiancoding.com/sketch -->
    <title>Terms &amp; Conditions</title>
    <desc>Created with Sketch.</desc>
    <defs></defs>
    <g id="Terms-&amp;-Conditions" stroke="none" stroke-width="1" fill="none" fill-rule="evenodd">
        <rect id="Rectangle" x="0" y="0" width="24" height="24"></rect>
        <path d="M20,21 C20.5522847,21 21,20.5522847 21,20 L21,4 C21,3.44771525 20.5522847,3 20,3 L7,3 C6.44771525,3 6,3.44771525 6,4 L6,21 L20,21 Z M5,22 L4.02631579,22 C4.01755732,21.9999434 4.00878528,22 4,22 C2.8954305,22 2,21.1045695 2,20 L2,15 C2,14.4477153 2.44771525,14 3,14 L5,14 L5,4 C5,2.8954305 5.8954305,2 7,2 L20,2 C21.1045695,2 22,2.8954305 22,4 L22,20 C22,21.1045695 21.1045695,22 20,22 L5,22 Z M3,15 L3,20 C3,20.5522847 3.44771525,21 4,21 C4.55228475,21 5,20.5522847 5,20 L5,15 L3,15 Z M8.5,13 L18.5,13 C18.7761424,13 19,12.7761424 19,12.5 C19,12.2238576 18.7761424,12 18.5,12 L8.5,12 C8.22385763,12 8,12.2238576 8,12.5 C8,12.7761424 8.22385763,13 8.5,13 Z M8.5,15 L12.5,15 C12.7761424,15 13,14.7761424 13,14.5 C13,14.2238576 12.7761424,14 12.5,14 L8.5,14 C8.22385763,14 8,14.2238576 8,14.5 C8,14.7761424 8.22385763,15 8.5,15 Z M8.5,6 L13.5,6 C13.7761424,6 14,5.77614237 14,5.5 C14,5.22385763 13.7761424,5 13.5,5 L8.5,5 C8.22385763,5 8,5.22385763 8,5.5 C8,5.77614237 8.22385763,6 8.5,6 Z M8.5,11 L18.5,11 C18.7761424,11 19,10.7761424 19,10.5 C19,10.2238576 18.7761424,10 18.5,10 L8.5,10 C8.22385763,10 8,10.2238576 8,10.5 C8,10.7761424 8.22385763,11 8.5,11 Z M8.5,9 L18.5,9 C18.7761424,9 19,8.77614237 19,8.5 C19,8.22385763 18.7761424,8 18.5,8 L8.5,8 C8.22385763,8 8,8.22385763 8,8.5 C8,8.77614237 8.22385763,9 8.5,9 Z M19.1468137,15.6460799 L16.4858695,18.3015067 L15.3450942,17.2134505 C15.1452693,17.0228603 14.8287754,17.0303464 14.6381851,17.2301712 C14.4475949,17.4299961 14.455081,17.74649 14.6549058,17.9370803 L16.1486725,19.3618149 C16.3450181,19.5490866 16.6548917,19.5455832 16.846953,19.3539201 L19.8531863,16.3539201 C20.048651,16.1588607 20.0489795,15.8422784 19.8539201,15.6468137 C19.6588607,15.451349 19.3422784,15.4510205 19.1468137,15.6460799 Z" id="Combined-Shape" fill="#000000" fill-rule="nonzero"></path>
    </g>
</svg>